<svg width="160" height="155" viewBox="0 0 160 155" fill="none" xmlns="http://www.w3.org/2000/svg">
<g opacity="0.45">
<circle opacity="0.5" cx="2.49676" cy="2.49676" r="2.49676" fill="#C09E3A"/>
<circle opacity="0.5" cx="85.0563" cy="2.49676" r="2.49676" fill="#C09E3A"/>
<circle opacity="0.5" cx="43.7765" cy="2.49676" r="2.49676" fill="#C09E3A"/>
<circle opacity="0.5" cx="126.336" cy="2.49676" r="2.49676" fill="#C09E3A"/>
<circle opacity="0.5" cx="23.1367" cy="2.49676" r="2.49676" fill="#C09E3A"/>
<circle opacity="0.5" cx="105.696" cy="2.49676" r="2.49676" fill="#C09E3A"/>
<circle opacity="0.5" cx="64.4164" cy="2.49676" r="2.49676" fill="#C09E3A"/>
<circle opacity="0.5" cx="146.976" cy="2.49676" r="2.49676" fill="#C09E3A"/>
<circle opacity="0.5" cx="12.8166" cy="2.49676" r="2.49676" fill="#C09E3A"/>
<circle opacity="0.5" cx="95.3762" cy="2.49676" r="2.49676" fill="#C09E3A"/>
<circle opacity="0.5" cx="54.0964" cy="2.49676" r="2.49676" fill="#C09E3A"/>
<circle opacity="0.5" cx="136.656" cy="2.49676" r="2.49676" fill="#C09E3A"/>
<circle opacity="0.5" cx="33.4565" cy="2.49676" r="2.49676" fill="#C09E3A"/>
<circle opacity="0.5" cx="116.016" cy="2.49676" r="2.49676" fill="#C09E3A"/>
<circle opacity="0.5" cx="74.7363" cy="2.49676" r="2.49676" fill="#C09E3A"/>
<circle opacity="0.5" cx="157.296" cy="2.49676" r="2.49676" fill="#C09E3A"/>
<circle opacity="0.5" cx="2.49676" cy="82.393" r="2.49676" fill="#C09E3A"/>
<circle opacity="0.5" cx="85.0563" cy="82.393" r="2.49676" fill="#C09E3A"/>
<circle opacity="0.5" cx="43.7765" cy="82.393" r="2.49676" fill="#C09E3A"/>
<circle opacity="0.5" cx="126.336" cy="82.393" r="2.49676" fill="#C09E3A"/>
<circle opacity="0.5" cx="23.1367" cy="82.393" r="2.49676" fill="#C09E3A"/>
<circle opacity="0.5" cx="105.696" cy="82.393" r="2.49676" fill="#C09E3A"/>
<circle opacity="0.5" cx="64.4164" cy="82.393" r="2.49676" fill="#C09E3A"/>
<circle opacity="0.5" cx="146.976" cy="82.393" r="2.49676" fill="#C09E3A"/>
<circle opacity="0.5" cx="12.8166" cy="82.393" r="2.49676" fill="#C09E3A"/>
<circle opacity="0.5" cx="95.3762" cy="82.393" r="2.49676" fill="#C09E3A"/>
<circle opacity="0.5" cx="54.0964" cy="82.393" r="2.49676" fill="#C09E3A"/>
<circle opacity="0.5" cx="136.656" cy="82.393" r="2.49676" fill="#C09E3A"/>
<circle opacity="0.5" cx="33.4565" cy="82.393" r="2.49676" fill="#C09E3A"/>
<circle opacity="0.5" cx="116.016" cy="82.393" r="2.49676" fill="#C09E3A"/>
<circle opacity="0.5" cx="74.7363" cy="82.393" r="2.49676" fill="#C09E3A"/>
<circle opacity="0.5" cx="157.296" cy="82.393" r="2.49676" fill="#C09E3A"/>
<circle opacity="0.5" cx="2.49676" cy="42.445" r="2.49676" fill="#C09E3A"/>
<circle opacity="0.5" cx="85.0563" cy="42.445" r="2.49676" fill="#C09E3A"/>
<circle opacity="0.5" cx="43.7765" cy="42.445" r="2.49676" fill="#C09E3A"/>
<circle opacity="0.5" cx="126.336" cy="42.445" r="2.49676" fill="#C09E3A"/>
<circle opacity="0.5" cx="23.1367" cy="42.445" r="2.49676" fill="#C09E3A"/>
<circle opacity="0.5" cx="105.696" cy="42.445" r="2.49676" fill="#C09E3A"/>
<circle opacity="0.5" cx="64.4164" cy="42.445" r="2.49676" fill="#C09E3A"/>
<circle opacity="0.5" cx="146.976" cy="42.445" r="2.49676" fill="#C09E3A"/>
<circle opacity="0.5" cx="12.8166" cy="42.445" r="2.49676" fill="#C09E3A"/>
<circle opacity="0.5" cx="95.3762" cy="42.445" r="2.49676" fill="#C09E3A"/>
<circle opacity="0.5" cx="54.0964" cy="42.445" r="2.49676" fill="#C09E3A"/>
<circle opacity="0.5" cx="136.656" cy="42.445" r="2.49676" fill="#C09E3A"/>
<circle opacity="0.5" cx="33.4565" cy="42.445" r="2.49676" fill="#C09E3A"/>
<circle opacity="0.5" cx="116.016" cy="42.445" r="2.49676" fill="#C09E3A"/>
<circle opacity="0.5" cx="74.7363" cy="42.445" r="2.49676" fill="#C09E3A"/>
<circle opacity="0.5" cx="157.296" cy="42.445" r="2.49676" fill="#C09E3A"/>
<circle opacity="0.5" cx="2.49676" cy="122.341" r="2.49676" fill="#C09E3A"/>
<circle opacity="0.5" cx="85.0563" cy="122.341" r="2.49676" fill="#C09E3A"/>
<circle opacity="0.5" cx="43.7765" cy="122.341" r="2.49676" fill="#C09E3A"/>
<circle opacity="0.5" cx="126.336" cy="122.341" r="2.49676" fill="#C09E3A"/>
<circle opacity="0.5" cx="23.1367" cy="122.341" r="2.49676" fill="#C09E3A"/>
<circle opacity="0.5" cx="105.696" cy="122.341" r="2.49676" fill="#C09E3A"/>
<circle opacity="0.5" cx="64.4164" cy="122.341" r="2.49676" fill="#C09E3A"/>
<circle opacity="0.5" cx="146.976" cy="122.341" r="2.49676" fill="#C09E3A"/>
<circle opacity="0.5" cx="12.8166" cy="122.341" r="2.49676" fill="#C09E3A"/>
<circle opacity="0.5" cx="95.3762" cy="122.341" r="2.49676" fill="#C09E3A"/>
<circle opacity="0.5" cx="54.0964" cy="122.341" r="2.49676" fill="#C09E3A"/>
<circle opacity="0.5" cx="136.656" cy="122.341" r="2.49676" fill="#C09E3A"/>
<circle opacity="0.5" cx="33.4565" cy="122.341" r="2.49676" fill="#C09E3A"/>
<circle opacity="0.5" cx="116.016" cy="122.341" r="2.49676" fill="#C09E3A"/>
<circle opacity="0.5" cx="74.7363" cy="122.341" r="2.49676" fill="#C09E3A"/>
<circle opacity="0.5" cx="157.296" cy="122.341" r="2.49676" fill="#C09E3A"/>
<circle opacity="0.5" cx="2.49676" cy="22.4709" r="2.49676" fill="#C09E3A"/>
<circle opacity="0.5" cx="85.0563" cy="22.4709" r="2.49676" fill="#C09E3A"/>
<circle opacity="0.5" cx="43.7765" cy="22.4709" r="2.49676" fill="#C09E3A"/>
<circle opacity="0.5" cx="126.336" cy="22.4709" r="2.49676" fill="#C09E3A"/>
<circle opacity="0.5" cx="23.1367" cy="22.4709" r="2.49676" fill="#C09E3A"/>
<circle opacity="0.5" cx="105.696" cy="22.4709" r="2.49676" fill="#C09E3A"/>
<circle opacity="0.5" cx="64.4164" cy="22.4709" r="2.49676" fill="#C09E3A"/>
<circle opacity="0.5" cx="146.976" cy="22.4709" r="2.49676" fill="#C09E3A"/>
<circle opacity="0.5" cx="12.8166" cy="22.4709" r="2.49676" fill="#C09E3A"/>
<circle opacity="0.5" cx="95.3762" cy="22.4709" r="2.49676" fill="#C09E3A"/>
<circle opacity="0.5" cx="54.0964" cy="22.4709" r="2.49676" fill="#C09E3A"/>
<circle opacity="0.5" cx="136.656" cy="22.4709" r="2.49676" fill="#C09E3A"/>
<circle opacity="0.5" cx="33.4565" cy="22.4709" r="2.49676" fill="#C09E3A"/>
<circle opacity="0.5" cx="116.016" cy="22.4709" r="2.49676" fill="#C09E3A"/>
<circle opacity="0.5" cx="74.7363" cy="22.4709" r="2.49676" fill="#C09E3A"/>
<circle opacity="0.5" cx="157.296" cy="22.4709" r="2.49676" fill="#C09E3A"/>
<circle opacity="0.5" cx="2.49676" cy="102.367" r="2.49676" fill="#C09E3A"/>
<circle opacity="0.5" cx="85.0563" cy="102.367" r="2.49676" fill="#C09E3A"/>
<circle opacity="0.5" cx="43.7765" cy="102.367" r="2.49676" fill="#C09E3A"/>
<circle opacity="0.5" cx="126.336" cy="102.367" r="2.49676" fill="#C09E3A"/>
<circle opacity="0.5" cx="23.1367" cy="102.367" r="2.49676" fill="#C09E3A"/>
<circle opacity="0.5" cx="105.696" cy="102.367" r="2.49676" fill="#C09E3A"/>
<circle opacity="0.5" cx="64.4164" cy="102.367" r="2.49676" fill="#C09E3A"/>
<circle opacity="0.5" cx="146.976" cy="102.367" r="2.49676" fill="#C09E3A"/>
<circle opacity="0.5" cx="12.8166" cy="102.367" r="2.49676" fill="#C09E3A"/>
<circle opacity="0.5" cx="95.3762" cy="102.367" r="2.49676" fill="#C09E3A"/>
<circle opacity="0.5" cx="54.0964" cy="102.367" r="2.49676" fill="#C09E3A"/>
<circle opacity="0.5" cx="136.656" cy="102.367" r="2.49676" fill="#C09E3A"/>
<circle opacity="0.5" cx="33.4565" cy="102.367" r="2.49676" fill="#C09E3A"/>
<circle opacity="0.5" cx="116.016" cy="102.367" r="2.49676" fill="#C09E3A"/>
<circle opacity="0.5" cx="74.7363" cy="102.367" r="2.49676" fill="#C09E3A"/>
<circle opacity="0.5" cx="157.296" cy="102.367" r="2.49676" fill="#C09E3A"/>
<circle opacity="0.5" cx="2.49676" cy="62.4191" r="2.49676" fill="#C09E3A"/>
<circle opacity="0.5" cx="85.0563" cy="62.4191" r="2.49676" fill="#C09E3A"/>
<circle opacity="0.5" cx="43.7765" cy="62.4191" r="2.49676" fill="#C09E3A"/>
<circle opacity="0.5" cx="126.336" cy="62.4191" r="2.49676" fill="#C09E3A"/>
<circle opacity="0.5" cx="23.1367" cy="62.4191" r="2.49676" fill="#C09E3A"/>
<circle opacity="0.5" cx="105.696" cy="62.4191" r="2.49676" fill="#C09E3A"/>
<circle opacity="0.5" cx="64.4164" cy="62.4191" r="2.49676" fill="#C09E3A"/>
<circle opacity="0.5" cx="146.976" cy="62.4191" r="2.49676" fill="#C09E3A"/>
<circle opacity="0.5" cx="12.8166" cy="62.4191" r="2.49676" fill="#C09E3A"/>
<circle opacity="0.5" cx="95.3762" cy="62.4191" r="2.49676" fill="#C09E3A"/>
<circle opacity="0.5" cx="54.0964" cy="62.4191" r="2.49676" fill="#C09E3A"/>
<circle opacity="0.5" cx="136.656" cy="62.4191" r="2.49676" fill="#C09E3A"/>
<circle opacity="0.5" cx="33.4565" cy="62.4191" r="2.49676" fill="#C09E3A"/>
<circle opacity="0.5" cx="116.016" cy="62.4191" r="2.49676" fill="#C09E3A"/>
<circle opacity="0.5" cx="74.7363" cy="62.4191" r="2.49676" fill="#C09E3A"/>
<circle opacity="0.5" cx="157.296" cy="62.4191" r="2.49676" fill="#C09E3A"/>
<circle opacity="0.5" cx="2.49676" cy="142.315" r="2.49676" fill="#C09E3A"/>
<circle opacity="0.5" cx="85.0563" cy="142.315" r="2.49676" fill="#C09E3A"/>
<circle opacity="0.5" cx="43.7765" cy="142.315" r="2.49676" fill="#C09E3A"/>
<circle opacity="0.5" cx="126.336" cy="142.315" r="2.49676" fill="#C09E3A"/>
<circle opacity="0.5" cx="23.1367" cy="142.315" r="2.49676" fill="#C09E3A"/>
<circle opacity="0.5" cx="105.696" cy="142.315" r="2.49676" fill="#C09E3A"/>
<circle opacity="0.5" cx="64.4164" cy="142.315" r="2.49676" fill="#C09E3A"/>
<circle opacity="0.5" cx="146.976" cy="142.315" r="2.49676" fill="#C09E3A"/>
<circle opacity="0.5" cx="12.8166" cy="142.315" r="2.49676" fill="#C09E3A"/>
<circle opacity="0.5" cx="95.3762" cy="142.315" r="2.49676" fill="#C09E3A"/>
<circle opacity="0.5" cx="54.0964" cy="142.315" r="2.49676" fill="#C09E3A"/>
<circle opacity="0.5" cx="136.656" cy="142.315" r="2.49676" fill="#C09E3A"/>
<circle opacity="0.5" cx="33.4565" cy="142.315" r="2.49676" fill="#C09E3A"/>
<circle opacity="0.5" cx="116.016" cy="142.315" r="2.49676" fill="#C09E3A"/>
<circle opacity="0.5" cx="74.7363" cy="142.315" r="2.49676" fill="#C09E3A"/>
<circle opacity="0.5" cx="157.296" cy="142.315" r="2.49676" fill="#C09E3A"/>
<circle opacity="0.5" cx="2.49676" cy="12.4838" r="2.49676" fill="#C09E3A"/>
<circle opacity="0.5" cx="85.0563" cy="12.4838" r="2.49676" fill="#C09E3A"/>
<circle opacity="0.5" cx="43.7765" cy="12.4838" r="2.49676" fill="#C09E3A"/>
<circle opacity="0.5" cx="126.336" cy="12.4838" r="2.49676" fill="#C09E3A"/>
<circle opacity="0.5" cx="23.1367" cy="12.4838" r="2.49676" fill="#C09E3A"/>
<circle opacity="0.5" cx="105.696" cy="12.4838" r="2.49676" fill="#C09E3A"/>
<circle opacity="0.5" cx="64.4164" cy="12.4838" r="2.49676" fill="#C09E3A"/>
<circle opacity="0.5" cx="146.976" cy="12.4838" r="2.49676" fill="#C09E3A"/>
<circle opacity="0.5" cx="12.8166" cy="12.4838" r="2.49676" fill="#C09E3A"/>
<circle opacity="0.5" cx="95.3762" cy="12.4838" r="2.49676" fill="#C09E3A"/>
<circle opacity="0.5" cx="54.0964" cy="12.4838" r="2.49676" fill="#C09E3A"/>
<circle opacity="0.5" cx="136.656" cy="12.4838" r="2.49676" fill="#C09E3A"/>
<circle opacity="0.5" cx="33.4565" cy="12.4838" r="2.49676" fill="#C09E3A"/>
<circle opacity="0.5" cx="116.016" cy="12.4838" r="2.49676" fill="#C09E3A"/>
<circle opacity="0.5" cx="74.7363" cy="12.4838" r="2.49676" fill="#C09E3A"/>
<circle opacity="0.5" cx="157.296" cy="12.4838" r="2.49676" fill="#C09E3A"/>
<circle opacity="0.5" cx="2.49676" cy="92.3801" r="2.49676" fill="#C09E3A"/>
<circle opacity="0.5" cx="85.0563" cy="92.3801" r="2.49676" fill="#C09E3A"/>
<circle opacity="0.5" cx="43.7765" cy="92.3801" r="2.49676" fill="#C09E3A"/>
<circle opacity="0.5" cx="126.336" cy="92.3801" r="2.49676" fill="#C09E3A"/>
<circle opacity="0.5" cx="23.1367" cy="92.3801" r="2.49676" fill="#C09E3A"/>
<circle opacity="0.5" cx="105.696" cy="92.3801" r="2.49676" fill="#C09E3A"/>
<circle opacity="0.5" cx="64.4164" cy="92.3801" r="2.49676" fill="#C09E3A"/>
<circle opacity="0.5" cx="146.976" cy="92.3801" r="2.49676" fill="#C09E3A"/>
<circle opacity="0.5" cx="12.8166" cy="92.3801" r="2.49676" fill="#C09E3A"/>
<circle opacity="0.5" cx="95.3762" cy="92.3801" r="2.49676" fill="#C09E3A"/>
<circle opacity="0.5" cx="54.0964" cy="92.3801" r="2.49676" fill="#C09E3A"/>
<circle opacity="0.5" cx="136.656" cy="92.3801" r="2.49676" fill="#C09E3A"/>
<circle opacity="0.5" cx="33.4565" cy="92.3801" r="2.49676" fill="#C09E3A"/>
<circle opacity="0.5" cx="116.016" cy="92.3801" r="2.49676" fill="#C09E3A"/>
<circle opacity="0.5" cx="74.7363" cy="92.3801" r="2.49676" fill="#C09E3A"/>
<circle opacity="0.5" cx="157.296" cy="92.3801" r="2.49676" fill="#C09E3A"/>
<circle opacity="0.5" cx="2.49676" cy="52.4318" r="2.49676" fill="#C09E3A"/>
<circle opacity="0.5" cx="85.0563" cy="52.4318" r="2.49676" fill="#C09E3A"/>
<circle opacity="0.5" cx="43.7765" cy="52.4318" r="2.49676" fill="#C09E3A"/>
<circle opacity="0.5" cx="126.336" cy="52.4318" r="2.49676" fill="#C09E3A"/>
<circle opacity="0.5" cx="23.1367" cy="52.4318" r="2.49676" fill="#C09E3A"/>
<circle opacity="0.5" cx="105.696" cy="52.4318" r="2.49676" fill="#C09E3A"/>
<circle opacity="0.5" cx="64.4164" cy="52.4318" r="2.49676" fill="#C09E3A"/>
<circle opacity="0.5" cx="146.976" cy="52.4318" r="2.49676" fill="#C09E3A"/>
<circle opacity="0.5" cx="12.8166" cy="52.4318" r="2.49676" fill="#C09E3A"/>
<circle opacity="0.5" cx="95.3762" cy="52.4318" r="2.49676" fill="#C09E3A"/>
<circle opacity="0.5" cx="54.0964" cy="52.4318" r="2.49676" fill="#C09E3A"/>
<circle opacity="0.5" cx="136.656" cy="52.4318" r="2.49676" fill="#C09E3A"/>
<circle opacity="0.5" cx="33.4565" cy="52.4318" r="2.49676" fill="#C09E3A"/>
<circle opacity="0.5" cx="116.016" cy="52.4318" r="2.49676" fill="#C09E3A"/>
<circle opacity="0.5" cx="74.7363" cy="52.4318" r="2.49676" fill="#C09E3A"/>
<circle opacity="0.5" cx="157.296" cy="52.4318" r="2.49676" fill="#C09E3A"/>
<circle opacity="0.5" cx="2.49676" cy="132.328" r="2.49676" fill="#C09E3A"/>
<circle opacity="0.5" cx="85.0563" cy="132.328" r="2.49676" fill="#C09E3A"/>
<circle opacity="0.5" cx="43.7765" cy="132.328" r="2.49676" fill="#C09E3A"/>
<circle opacity="0.5" cx="126.336" cy="132.328" r="2.49676" fill="#C09E3A"/>
<circle opacity="0.5" cx="23.1367" cy="132.328" r="2.49676" fill="#C09E3A"/>
<circle opacity="0.5" cx="105.696" cy="132.328" r="2.49676" fill="#C09E3A"/>
<circle opacity="0.5" cx="64.4164" cy="132.328" r="2.49676" fill="#C09E3A"/>
<circle opacity="0.5" cx="146.976" cy="132.328" r="2.49676" fill="#C09E3A"/>
<circle opacity="0.5" cx="12.8166" cy="132.328" r="2.49676" fill="#C09E3A"/>
<circle opacity="0.5" cx="95.3762" cy="132.328" r="2.49676" fill="#C09E3A"/>
<circle opacity="0.5" cx="54.0964" cy="132.328" r="2.49676" fill="#C09E3A"/>
<circle opacity="0.5" cx="136.656" cy="132.328" r="2.49676" fill="#C09E3A"/>
<circle opacity="0.5" cx="33.4565" cy="132.328" r="2.49676" fill="#C09E3A"/>
<circle opacity="0.5" cx="116.016" cy="132.328" r="2.49676" fill="#C09E3A"/>
<circle opacity="0.5" cx="74.7363" cy="132.328" r="2.49676" fill="#C09E3A"/>
<circle opacity="0.5" cx="157.296" cy="132.328" r="2.49676" fill="#C09E3A"/>
<circle opacity="0.5" cx="2.49676" cy="32.4579" r="2.49676" fill="#C09E3A"/>
<circle opacity="0.5" cx="85.0563" cy="32.4579" r="2.49676" fill="#C09E3A"/>
<circle opacity="0.5" cx="43.7765" cy="32.4579" r="2.49676" fill="#C09E3A"/>
<circle opacity="0.5" cx="126.336" cy="32.4579" r="2.49676" fill="#C09E3A"/>
<circle opacity="0.5" cx="23.1367" cy="32.4579" r="2.49676" fill="#C09E3A"/>
<circle opacity="0.5" cx="105.696" cy="32.4579" r="2.49676" fill="#C09E3A"/>
<circle opacity="0.5" cx="64.4164" cy="32.4579" r="2.49676" fill="#C09E3A"/>
<circle opacity="0.5" cx="146.976" cy="32.4579" r="2.49676" fill="#C09E3A"/>
<circle opacity="0.5" cx="12.8166" cy="32.4579" r="2.49676" fill="#C09E3A"/>
<circle opacity="0.5" cx="95.3762" cy="32.4579" r="2.49676" fill="#C09E3A"/>
<circle opacity="0.5" cx="54.0964" cy="32.4579" r="2.49676" fill="#C09E3A"/>
<circle opacity="0.5" cx="136.656" cy="32.4579" r="2.49676" fill="#C09E3A"/>
<circle opacity="0.5" cx="33.4565" cy="32.4579" r="2.49676" fill="#C09E3A"/>
<circle opacity="0.5" cx="116.016" cy="32.4579" r="2.49676" fill="#C09E3A"/>
<circle opacity="0.5" cx="74.7363" cy="32.4579" r="2.49676" fill="#C09E3A"/>
<circle opacity="0.5" cx="157.296" cy="32.4579" r="2.49676" fill="#C09E3A"/>
<circle opacity="0.5" cx="2.49676" cy="112.354" r="2.49676" fill="#C09E3A"/>
<circle opacity="0.5" cx="85.0563" cy="112.354" r="2.49676" fill="#C09E3A"/>
<circle opacity="0.5" cx="43.7765" cy="112.354" r="2.49676" fill="#C09E3A"/>
<circle opacity="0.5" cx="126.336" cy="112.354" r="2.49676" fill="#C09E3A"/>
<circle opacity="0.5" cx="23.1367" cy="112.354" r="2.49676" fill="#C09E3A"/>
<circle opacity="0.5" cx="105.696" cy="112.354" r="2.49676" fill="#C09E3A"/>
<circle opacity="0.5" cx="64.4164" cy="112.354" r="2.49676" fill="#C09E3A"/>
<circle opacity="0.5" cx="146.976" cy="112.354" r="2.49676" fill="#C09E3A"/>
<circle opacity="0.5" cx="12.8166" cy="112.354" r="2.49676" fill="#C09E3A"/>
<circle opacity="0.5" cx="95.3762" cy="112.354" r="2.49676" fill="#C09E3A"/>
<circle opacity="0.5" cx="54.0964" cy="112.354" r="2.49676" fill="#C09E3A"/>
<circle opacity="0.5" cx="136.656" cy="112.354" r="2.49676" fill="#C09E3A"/>
<circle opacity="0.5" cx="33.4565" cy="112.354" r="2.49676" fill="#C09E3A"/>
<circle opacity="0.5" cx="116.016" cy="112.354" r="2.49676" fill="#C09E3A"/>
<circle opacity="0.5" cx="74.7363" cy="112.354" r="2.49676" fill="#C09E3A"/>
<circle opacity="0.5" cx="157.296" cy="112.354" r="2.49676" fill="#C09E3A"/>
<circle opacity="0.5" cx="2.49676" cy="72.4059" r="2.49676" fill="#C09E3A"/>
<circle opacity="0.5" cx="85.0563" cy="72.4059" r="2.49676" fill="#C09E3A"/>
<circle opacity="0.5" cx="43.7765" cy="72.4059" r="2.49676" fill="#C09E3A"/>
<circle opacity="0.5" cx="126.336" cy="72.4059" r="2.49676" fill="#C09E3A"/>
<circle opacity="0.5" cx="23.1367" cy="72.4059" r="2.49676" fill="#C09E3A"/>
<circle opacity="0.5" cx="105.696" cy="72.4059" r="2.49676" fill="#C09E3A"/>
<circle opacity="0.5" cx="64.4164" cy="72.4059" r="2.49676" fill="#C09E3A"/>
<circle opacity="0.5" cx="146.976" cy="72.4059" r="2.49676" fill="#C09E3A"/>
<circle opacity="0.5" cx="12.8166" cy="72.4059" r="2.49676" fill="#C09E3A"/>
<circle opacity="0.5" cx="95.3762" cy="72.4059" r="2.49676" fill="#C09E3A"/>
<circle opacity="0.5" cx="54.0964" cy="72.4059" r="2.49676" fill="#C09E3A"/>
<circle opacity="0.5" cx="136.656" cy="72.4059" r="2.49676" fill="#C09E3A"/>
<circle opacity="0.5" cx="33.4565" cy="72.4059" r="2.49676" fill="#C09E3A"/>
<circle opacity="0.5" cx="116.016" cy="72.4059" r="2.49676" fill="#C09E3A"/>
<circle opacity="0.5" cx="74.7363" cy="72.4059" r="2.49676" fill="#C09E3A"/>
<circle opacity="0.5" cx="157.296" cy="72.4059" r="2.49676" fill="#C09E3A"/>
<circle opacity="0.5" cx="2.49676" cy="152.302" r="2.49676" fill="#C09E3A"/>
<circle opacity="0.5" cx="85.0563" cy="152.302" r="2.49676" fill="#C09E3A"/>
<circle opacity="0.5" cx="43.7765" cy="152.302" r="2.49676" fill="#C09E3A"/>
<circle opacity="0.5" cx="126.336" cy="152.302" r="2.49676" fill="#C09E3A"/>
<circle opacity="0.5" cx="23.1367" cy="152.302" r="2.49676" fill="#C09E3A"/>
<circle opacity="0.5" cx="105.696" cy="152.302" r="2.49676" fill="#C09E3A"/>
<circle opacity="0.5" cx="64.4164" cy="152.302" r="2.49676" fill="#C09E3A"/>
<circle opacity="0.5" cx="146.976" cy="152.302" r="2.49676" fill="#C09E3A"/>
<circle opacity="0.5" cx="12.8166" cy="152.302" r="2.49676" fill="#C09E3A"/>
<circle opacity="0.5" cx="95.3762" cy="152.302" r="2.49676" fill="#C09E3A"/>
<circle opacity="0.5" cx="54.0964" cy="152.302" r="2.49676" fill="#C09E3A"/>
<circle opacity="0.5" cx="136.656" cy="152.302" r="2.49676" fill="#C09E3A"/>
<circle opacity="0.5" cx="33.4565" cy="152.302" r="2.49676" fill="#C09E3A"/>
<circle opacity="0.5" cx="116.016" cy="152.302" r="2.49676" fill="#C09E3A"/>
<circle opacity="0.5" cx="74.7363" cy="152.302" r="2.49676" fill="#C09E3A"/>
<circle opacity="0.5" cx="157.296" cy="152.302" r="2.49676" fill="#C09E3A"/>
</g>
</svg>
