<svg width="380" height="73" viewBox="0 0 380 73" fill="none" xmlns="http://www.w3.org/2000/svg">
<path d="M18.5313 26.5599V28.6481H35.9022V22H14V36.2758H31.2728V38.2744H18.7009V47.5985H33.8542V49.9118H16.048V38.3077H14V52H35.9022V45.5061H20.755V40.3647H33.3228V34.1855H16.048V24.0882H33.8542V26.5599H18.5313Z" fill="white"/>
<path d="M40.646 45.4665V24.0882H42.9147V43.1615H44.9627V22H38.598V47.5589H56.9541V49.9118H38.8617V52H59V45.4665H40.646Z" fill="white"/>
<path fill-rule="evenodd" clip-rule="evenodd" d="M0 36.5C0 16.3729 16.3729 0 36.5 0C56.6271 0 73 16.3729 73 36.5C73 56.6271 56.6271 73 36.5 73C16.3729 73 0 56.6271 0 36.5ZM36.5 71.0248C55.5374 71.0248 71.0249 55.5374 71.0249 36.5V36.5021C71.0249 17.4626 55.5374 1.97308 36.5 1.97308C17.4626 1.97308 1.97515 17.4606 1.97515 36.5C1.97515 55.5394 17.4626 71.0248 36.5 71.0248Z" fill="white"/>
<path d="M106 20.3478H131.437V27.7647H114.674V32.5271H129.855V39.4037H114.674V44.3942H131.662V51.8091H106V20.3478Z" fill="white"/>
<path d="M133.785 48.754L136.993 43.5868C139.793 45.4277 142.864 46.3727 145.396 46.3727C146.887 46.3727 147.567 45.9228 147.567 45.0702V44.9798C147.567 44.0367 146.21 43.632 143.634 42.9129C138.8 41.6535 134.96 40.0365 134.96 35.1385V35.0481C134.96 29.8809 139.118 27.0045 144.764 27.0045C148.333 27.0045 152.038 28.038 154.84 29.8336L151.903 35.2268C149.374 33.8359 146.617 32.9791 144.675 32.9791C143.364 32.9791 142.686 33.4743 142.686 34.1461V34.2365C142.686 35.1796 144.087 35.6295 146.662 36.3959C151.497 37.7436 155.336 39.4058 155.336 44.1251V44.2134C155.336 49.5635 151.315 52.3494 145.353 52.3494C141.241 52.3494 137.174 51.1824 133.787 48.754H133.785Z" fill="white"/>
<path fill-rule="evenodd" clip-rule="evenodd" d="M167.442 27.4935H158.859V59H167.444V48.8423C169.026 50.6852 171.193 52.3474 174.898 52.3474C180.68 52.3474 185.694 47.5397 185.694 39.6297V39.5393C185.694 31.7649 180.68 26.9532 174.852 26.9532C171.191 26.9532 169.113 28.7057 167.442 30.7294V27.4935ZM177.246 39.5845V39.6729C177.246 42.954 174.988 45.2017 172.231 45.2017C169.474 45.2017 167.262 42.9088 167.262 39.6729V39.5845C167.262 36.3918 169.431 34.0989 172.231 34.0989C175.032 34.0989 177.246 36.3938 177.246 39.5845Z" fill="white"/>
<path d="M189.397 27.4935H197.982V32.3915C199.383 29.0673 201.642 26.908 205.708 27.0888V36.0795H204.984C200.512 36.0795 197.982 38.6415 197.982 44.2586V51.8091H189.397V27.4935Z" fill="white"/>
<path fill-rule="evenodd" clip-rule="evenodd" d="M207.739 39.6749V39.7653H207.737C207.737 47.3158 213.158 52.3946 220.838 52.3946C225.716 52.3946 229.105 50.4161 231.455 47.4514L226.712 43.5395C224.95 45.2489 223.325 46.0132 221.293 46.0132C218.624 46.0132 216.683 44.6634 216.006 42.013H232.358C232.405 41.4275 232.405 40.7988 232.405 40.2605V40.2605C232.405 33.1147 228.521 26.9552 220.072 26.9552C212.844 26.9552 207.739 32.5744 207.739 39.6749ZM220.117 33.2483C222.468 33.2483 224.05 34.9556 224.366 37.6512H215.871C216.324 35.0008 217.767 33.2483 220.117 33.2483Z" fill="white"/>
<path d="M234.215 48.754L237.422 43.5868C240.222 45.4277 243.293 46.3727 245.825 46.3727C247.316 46.3727 247.996 45.9228 247.996 45.0702V44.9798C247.996 44.0367 246.639 43.632 244.064 42.9129C239.229 41.6535 235.39 40.0365 235.39 35.1385V35.0481C235.39 29.8809 239.547 27.0045 245.193 27.0045C248.762 27.0045 252.467 28.038 255.269 29.8336L252.333 35.2268C249.803 33.8359 247.046 32.9791 245.104 32.9791C243.793 32.9791 243.116 33.4743 243.116 34.1461V34.2365C243.116 35.1796 244.516 35.6295 247.091 36.3959C251.926 37.7436 255.765 39.4058 255.765 44.1251V44.2134C255.765 49.5635 251.744 52.3494 245.782 52.3494C241.67 52.3494 237.604 51.1824 234.217 48.754H234.215Z" fill="white"/>
<path d="M257.434 48.754L260.641 43.5868C263.441 45.4277 266.512 46.3727 269.044 46.3727C270.535 46.3727 271.215 45.9228 271.215 45.0702V44.9798C271.215 44.0367 269.858 43.632 267.283 42.9129C262.448 41.6535 258.609 40.0365 258.609 35.1385V35.0481C258.609 29.8809 262.766 27.0045 268.412 27.0045C271.981 27.0045 275.686 28.038 278.489 29.8336L275.552 35.2268C273.022 33.8359 270.265 32.9791 268.324 32.9791C267.012 32.9791 266.335 33.4743 266.335 34.1461V34.2365C266.335 35.1796 267.735 35.6295 270.31 36.3959C275.145 37.7436 278.984 39.4058 278.984 44.1251V44.2134C278.984 49.5635 274.963 52.3494 269.001 52.3494C264.889 52.3494 260.823 51.1824 257.436 48.754H257.434Z" fill="white"/>
<path d="M284.267 20.3478H289.825V46.7754H306.45V51.8111H284.267V20.3478Z" fill="white"/>
<path fill-rule="evenodd" clip-rule="evenodd" d="M324.384 48.8875V51.8091H329.805V37.7416C329.805 31.4033 326.373 27.7174 319.324 27.7174C315.437 27.7174 312.864 28.5249 310.241 29.696L311.732 34.0557C313.903 33.1558 315.89 32.5723 318.556 32.5723C322.352 32.5723 324.429 34.3701 324.429 37.6491V38.2347C322.575 37.6491 320.722 37.2464 317.831 37.2464C312.275 37.2464 308.164 39.7633 308.164 44.8873V44.9757C308.164 49.7402 312.141 52.3022 316.658 52.3022C320.274 52.3022 322.758 50.8208 324.384 48.8875ZM319.054 40.7988C321.177 40.7988 323.12 41.2035 324.52 41.7418V43.2252C324.52 46.1919 321.811 48.2157 318.196 48.2157C315.621 48.2157 313.587 46.9583 313.587 44.7106V44.6202C313.587 42.1917 315.621 40.7988 319.054 40.7988Z" fill="white"/>
<path fill-rule="evenodd" clip-rule="evenodd" d="M339.972 48.1253C341.645 50.3278 344.127 52.3042 348.059 52.3042C353.751 52.3042 359.172 47.8561 359.172 39.9441C359.172 32.032 353.706 27.5818 348.059 27.5818C344.22 27.5818 341.734 29.5604 339.972 32.032V19H334.505V51.8111H339.972V48.1253ZM339.836 39.9441C339.836 35.3152 343.088 32.3032 346.793 32.3032C350.498 32.3032 353.615 35.2268 353.615 39.9441C353.615 44.6613 350.498 47.5849 346.793 47.5849C343.088 47.5849 339.836 44.573 339.836 39.9441Z" fill="white"/>
<path d="M371.144 52.259C367.755 52.259 364.007 51.0448 361.025 48.7088L363.464 45.0229C366.039 46.9562 368.842 47.9445 371.281 47.9445C373.72 47.9445 374.986 46.9562 374.986 45.3825V45.2921C374.986 43.4512 372.456 42.8204 369.655 41.9657C366.132 40.9775 362.202 39.5393 362.202 35.0008V34.9104C362.202 30.4171 365.95 27.6743 370.694 27.6743C373.676 27.6743 376.929 28.7077 379.459 30.3719L377.29 34.2365C374.986 32.8435 372.547 31.9889 370.558 31.9889C368.433 31.9889 367.214 32.9771 367.214 34.3721V34.4605C367.214 36.1699 369.79 36.889 372.59 37.7868C376.07 38.8654 380 40.4392 380 44.7106V44.799C380 49.7874 376.115 52.2611 371.144 52.2611V52.259Z" fill="white"/>
</svg>
