<svg id="web" xmlns="http://www.w3.org/2000/svg" xmlns:xlink="http://www.w3.org/1999/xlink" width="20.027" height="20" viewBox="0 0 20.027 20">
  <defs>
    <clipPath id="clip-path">
      <path id="Clip_2" data-name="Clip 2" d="M0,0H20.027V20H0Z" fill="none"/>
    </clipPath>
  </defs>
  <path id="Clip_2-2" data-name="Clip 2" d="M0,0H20.027V20H0Z" fill="none"/>
  <g id="Group_3" data-name="Group 3" clip-path="url(#clip-path)">
    <path id="Fill_1" data-name="Fill 1" d="M10.013,20A10,10,0,1,1,20.027,10,10.018,10.018,0,0,1,10.013,20Zm1.517-8.6h0l-.057.019a11.683,11.683,0,0,0-6.709,5.334,8.552,8.552,0,0,0,8.591,1.124A35.362,35.362,0,0,0,11.53,11.4Zm3.38-.532A11.311,11.311,0,0,0,13.131,11a36.687,36.687,0,0,1,1.661,6.09,8.578,8.578,0,0,0,3.666-5.725A12.509,12.509,0,0,0,14.91,10.866ZM1.465,9.752c0,.1,0,.182,0,.261a8.51,8.51,0,0,0,2.2,5.71,13.513,13.513,0,0,1,6.952-5.636c.119-.038.23-.072.337-.1-.2-.452-.433-.94-.694-1.45A31.826,31.826,0,0,1,1.731,9.755C1.6,9.755,1.507,9.753,1.465,9.752Zm13.113-.212a21.053,21.053,0,0,1,3.987.392,8.548,8.548,0,0,0-1.931-5.321,11.5,11.5,0,0,1-4.775,3.368c.21.429.4.846.567,1.238q.095.221.185.44A15.9,15.9,0,0,1,14.578,9.541Zm-8.2-7.257a8.6,8.6,0,0,0-4.737,5.98h.138A32.1,32.1,0,0,0,9.548,7.223,54.485,54.485,0,0,0,6.377,2.283Zm3.636-.812a8.58,8.58,0,0,0-2,.238,45.012,45.012,0,0,1,3.191,5,9.665,9.665,0,0,0,4.483-3.086A8.55,8.55,0,0,0,10.013,1.471Z" transform="translate(0 0)" fill="#fff"/>
  </g>
</svg>
