<svg xmlns="http://www.w3.org/2000/svg" width="242.18" height="313.44" viewBox="0 0 242.18 313.44">
  <g id="x2" transform="translate(242.18 313.44) rotate(180)">
    <path id="Path" d="M8.15,0H6.48V6.48H0V8.15H6.48v6.47H8.15V8.15h6.48V6.48H8.15V0Z" transform="translate(152.85)" fill="#0092bd"/>
    <path id="Path-2" data-name="Path" d="M8.15,0H6.48V6.48H0V8.15H6.48v6.48H8.15V8.15h6.48V6.48H8.15V0Z" transform="translate(152.85 74.7)" fill="#0092bd"/>
    <path id="Path-3" data-name="Path" d="M8.15,0H6.48V6.48H0V8.15H6.48v6.48H8.15V8.15h6.48V6.48H8.15V0Z" transform="translate(152.85 149.41)" fill="#0092bd"/>
    <path id="Path-4" data-name="Path" d="M8.15,0H6.48V6.48H0V8.15H6.48v6.48H8.15V8.15h6.48V6.48H8.15V0Z" transform="translate(152.85 224.11)" fill="#0092bd"/>
    <path id="Path-5" data-name="Path" d="M8.15,0H6.48V6.48H0V8.15H6.48v6.48H8.15V8.15h6.48V6.48H8.15V0Z" transform="translate(152.85 298.81)" fill="#0092bd"/>
    <path id="Path-6" data-name="Path" d="M8.15,6.48V0H6.47V6.48H0V8.15H6.47v6.47H8.15V8.15h6.47V6.48Z" transform="translate(227.56)" fill="#0092bd"/>
    <path id="Path-7" data-name="Path" d="M8.15,0H6.47V6.48H0V8.15H6.47v6.48H8.15V8.15h6.47V6.48H8.15V0Z" transform="translate(227.56 74.7)" fill="#0092bd"/>
    <path id="Path-8" data-name="Path" d="M8.15,0H6.47V6.48H0V8.15H6.47v6.48H8.15V8.15h6.47V6.48H8.15V0Z" transform="translate(227.56 149.41)" fill="#0092bd"/>
    <path id="Path-9" data-name="Path" d="M8.15,0H6.47V6.48H0V8.15H6.47v6.48H8.15V8.15h6.47V6.48H8.15V0Z" transform="translate(227.56 224.11)" fill="#0092bd"/>
    <path id="Path-10" data-name="Path" d="M8.15,0H6.47V6.48H0V8.15H6.47v6.48H8.15V8.15h6.47V6.48H8.15V0Z" transform="translate(227.56 298.81)" fill="#0092bd"/>
    <path id="Path-11" data-name="Path" d="M8.15,0H6.48V6.48H0V8.15H6.48v6.47H8.15V8.15h6.48V6.48H8.15V0Z" transform="translate(78.15)" fill="#0092bd"/>
    <path id="Path-12" data-name="Path" d="M8.15,0H6.48V6.48H0V8.15H6.48v6.48H8.15V8.15h6.48V6.48H8.15V0Z" transform="translate(78.15 74.7)" fill="#0092bd"/>
    <path id="Path-13" data-name="Path" d="M8.15,0H6.48V6.48H0V8.15H6.48v6.48H8.15V8.15h6.48V6.48H8.15V0Z" transform="translate(78.15 149.41)" fill="#0092bd"/>
    <path id="Path-14" data-name="Path" d="M8.15,0H6.48V6.48H0V8.15H6.48v6.48H8.15V8.15h6.48V6.48H8.15V0Z" transform="translate(78.15 224.11)" fill="#0092bd"/>
    <path id="Path-15" data-name="Path" d="M8.15,0H6.48V6.48H0V8.15H6.48v6.48H8.15V8.15h6.48V6.48H8.15V0Z" transform="translate(78.15 298.81)" fill="#0092bd"/>
    <path id="Path-16" data-name="Path" d="M8.15,0H6.48V6.48H0V8.15H6.48v6.47H8.15V8.15h6.48V6.48H8.15V0Z" transform="translate(3.44)" fill="#0092bd"/>
    <path id="Path-17" data-name="Path" d="M8.15,0H6.48V6.48H0V8.15H6.48v6.48H8.15V8.15h6.48V6.48H8.15V0Z" transform="translate(3.44 74.7)" fill="#0092bd"/>
    <path id="Path-18" data-name="Path" d="M8.15,0H6.48V6.48H0V8.15H6.48v6.48H8.15V8.15h6.48V6.48H8.15V0Z" transform="translate(3.44 149.41)" fill="#0092bd"/>
    <path id="Path-19" data-name="Path" d="M8.15,0H6.48V6.48H0V8.15H6.48v6.48H8.15V8.15h6.48V6.48H8.15V0Z" transform="translate(3.44 224.11)" fill="#0092bd"/>
    <path id="Path-20" data-name="Path" d="M8.15,0H6.48V6.48H0V8.15H6.48v6.48H8.15V8.15h6.48V6.48H8.15V0Z" transform="translate(3.44 298.81)" fill="#0092bd"/>
    <path id="Path-21" data-name="Path" d="M8.15,0H6.48V6.48H0V8.15H6.48v6.47H8.15V8.15h6.48V6.48H8.15V0Z" transform="translate(149.41)" fill="#ed3f7b"/>
    <path id="Path-22" data-name="Path" d="M8.15,0H6.48V6.48H0V8.15H6.48v6.48H8.15V8.15h6.48V6.48H8.15V0Z" transform="translate(149.41 74.7)" fill="#ed3f7b"/>
    <path id="Path-23" data-name="Path" d="M8.15,0H6.48V6.48H0V8.15H6.48v6.48H8.15V8.15h6.48V6.48H8.15V0Z" transform="translate(149.41 149.41)" fill="#ed3f7b"/>
    <path id="Path-24" data-name="Path" d="M8.15,0H6.48V6.48H0V8.15H6.48v6.48H8.15V8.15h6.48V6.48H8.15V0Z" transform="translate(149.41 224.11)" fill="#ed3f7b"/>
    <path id="Path-25" data-name="Path" d="M8.15,0H6.48V6.48H0V8.15H6.48v6.48H8.15V8.15h6.48V6.48H8.15V0Z" transform="translate(149.41 298.81)" fill="#ed3f7b"/>
    <path id="Path-26" data-name="Path" d="M8.14,6.48V0H6.47V6.48H0V8.15H6.47v6.47H8.14V8.15h6.48V6.48Z" transform="translate(224.12)" fill="#ed3f7b"/>
    <path id="Path-27" data-name="Path" d="M8.14,0H6.47V6.48H0V8.15H6.47v6.48H8.14V8.15h6.48V6.48H8.14V0Z" transform="translate(224.12 74.7)" fill="#ed3f7b"/>
    <path id="Path-28" data-name="Path" d="M8.14,0H6.47V6.48H0V8.15H6.47v6.48H8.14V8.15h6.48V6.48H8.14V0Z" transform="translate(224.12 149.41)" fill="#ed3f7b"/>
    <path id="Path-29" data-name="Path" d="M8.14,0H6.47V6.48H0V8.15H6.47v6.48H8.14V8.15h6.48V6.48H8.14V0Z" transform="translate(224.12 224.11)" fill="#ed3f7b"/>
    <path id="Path-30" data-name="Path" d="M8.14,0H6.47V6.48H0V8.15H6.47v6.48H8.14V8.15h6.48V6.48H8.14V0Z" transform="translate(224.12 298.81)" fill="#ed3f7b"/>
    <path id="Path-31" data-name="Path" d="M8.15,0H6.48V6.48H0V8.15H6.48v6.47H8.15V8.15h6.48V6.48H8.15V0Z" transform="translate(74.7)" fill="#ed3f7b"/>
    <path id="Path-32" data-name="Path" d="M8.15,0H6.48V6.48H0V8.15H6.48v6.48H8.15V8.15h6.48V6.48H8.15V0Z" transform="translate(74.7 74.7)" fill="#ed3f7b"/>
    <path id="Path-33" data-name="Path" d="M8.15,0H6.48V6.48H0V8.15H6.48v6.48H8.15V8.15h6.48V6.48H8.15V0Z" transform="translate(74.7 149.41)" fill="#ed3f7b"/>
    <path id="Path-34" data-name="Path" d="M8.15,0H6.48V6.48H0V8.15H6.48v6.48H8.15V8.15h6.48V6.48H8.15V0Z" transform="translate(74.7 224.11)" fill="#ed3f7b"/>
    <path id="Path-35" data-name="Path" d="M8.15,0H6.48V6.48H0V8.15H6.48v6.48H8.15V8.15h6.48V6.48H8.15V0Z" transform="translate(74.7 298.81)" fill="#ed3f7b"/>
    <path id="Path-36" data-name="Path" d="M8.15,0H6.48V6.48H0V8.15H6.48v6.47H8.15V8.15h6.48V6.48H8.15V0Z" fill="#ed3f7b"/>
    <path id="Path-37" data-name="Path" d="M8.15,0H6.48V6.48H0V8.15H6.48v6.48H8.15V8.15h6.48V6.48H8.15V0Z" transform="translate(0 74.7)" fill="#ed3f7b"/>
    <path id="Path-38" data-name="Path" d="M8.15,0H6.48V6.48H0V8.15H6.48v6.48H8.15V8.15h6.48V6.48H8.15V0Z" transform="translate(0 149.41)" fill="#ed3f7b"/>
    <path id="Path-39" data-name="Path" d="M8.15,0H6.48V6.48H0V8.15H6.48v6.48H8.15V8.15h6.48V6.48H8.15V0Z" transform="translate(0 224.11)" fill="#ed3f7b"/>
    <path id="Path-40" data-name="Path" d="M8.15,0H6.48V6.48H0V8.15H6.48v6.48H8.15V8.15h6.48V6.48H8.15V0Z" transform="translate(0 298.81)" fill="#ed3f7b"/>
    <path id="Path-41" data-name="Path" d="M8.15,0H6.48V6.48H0V8.15H6.48v6.47H8.15V8.15h6.48V6.48H8.15V0Z" transform="translate(151.03)" fill="#fff"/>
    <path id="Path-42" data-name="Path" d="M8.15,0H6.48V6.48H0V8.15H6.48v6.48H8.15V8.15h6.48V6.48H8.15V0Z" transform="translate(151.03 74.7)" fill="#fff"/>
    <path id="Path-43" data-name="Path" d="M8.15,0H6.48V6.48H0V8.15H6.48v6.48H8.15V8.15h6.48V6.48H8.15V0Z" transform="translate(151.03 149.41)" fill="#fff"/>
    <path id="Path-44" data-name="Path" d="M8.15,0H6.48V6.48H0V8.15H6.48v6.48H8.15V8.15h6.48V6.48H8.15V0Z" transform="translate(151.03 224.11)" fill="#fff"/>
    <path id="Path-45" data-name="Path" d="M8.15,0H6.48V6.48H0V8.15H6.48v6.48H8.15V8.15h6.48V6.48H8.15V0Z" transform="translate(151.03 298.81)" fill="#fff"/>
    <path id="Path-46" data-name="Path" d="M8.15,6.48V0H6.48V6.48H0V8.15H6.48v6.47H8.15V8.15h6.48V6.48Z" transform="translate(225.73)" fill="#fff"/>
    <path id="Path-47" data-name="Path" d="M8.15,0H6.48V6.48H0V8.15H6.48v6.48H8.15V8.15h6.48V6.48H8.15V0Z" transform="translate(225.73 74.7)" fill="#fff"/>
    <path id="Path-48" data-name="Path" d="M8.15,0H6.48V6.48H0V8.15H6.48v6.48H8.15V8.15h6.48V6.48H8.15V0Z" transform="translate(225.73 149.41)" fill="#fff"/>
    <path id="Path-49" data-name="Path" d="M8.15,0H6.48V6.48H0V8.15H6.48v6.48H8.15V8.15h6.48V6.48H8.15V0Z" transform="translate(225.73 224.11)" fill="#fff"/>
    <path id="Path-50" data-name="Path" d="M8.15,0H6.48V6.48H0V8.15H6.48v6.48H8.15V8.15h6.48V6.48H8.15V0Z" transform="translate(225.73 298.81)" fill="#fff"/>
    <path id="Path-51" data-name="Path" d="M8.15,0H6.48V6.48H0V8.15H6.48v6.47H8.15V8.15h6.48V6.48H8.15V0Z" transform="translate(76.32)" fill="#fff"/>
    <path id="Path-52" data-name="Path" d="M8.15,0H6.48V6.48H0V8.15H6.48v6.48H8.15V8.15h6.48V6.48H8.15V0Z" transform="translate(76.32 74.7)" fill="#fff"/>
    <path id="Path-53" data-name="Path" d="M8.15,0H6.48V6.48H0V8.15H6.48v6.48H8.15V8.15h6.48V6.48H8.15V0Z" transform="translate(76.32 149.41)" fill="#fff"/>
    <path id="Path-54" data-name="Path" d="M8.15,0H6.48V6.48H0V8.15H6.48v6.48H8.15V8.15h6.48V6.48H8.15V0Z" transform="translate(76.32 224.11)" fill="#fff"/>
    <path id="Path-55" data-name="Path" d="M8.15,0H6.48V6.48H0V8.15H6.48v6.48H8.15V8.15h6.48V6.48H8.15V0Z" transform="translate(76.32 298.81)" fill="#fff"/>
    <path id="Path-56" data-name="Path" d="M8.15,0H6.48V6.48H0V8.15H6.48v6.47H8.15V8.15h6.48V6.48H8.15V0Z" transform="translate(1.62)" fill="#fff"/>
    <path id="Path-57" data-name="Path" d="M8.15,0H6.48V6.48H0V8.15H6.48v6.48H8.15V8.15h6.48V6.48H8.15V0Z" transform="translate(1.62 74.7)" fill="#fff"/>
    <path id="Path-58" data-name="Path" d="M8.15,0H6.48V6.48H0V8.15H6.48v6.48H8.15V8.15h6.48V6.48H8.15V0Z" transform="translate(1.62 149.41)" fill="#fff"/>
    <path id="Path-59" data-name="Path" d="M8.15,0H6.48V6.48H0V8.15H6.48v6.48H8.15V8.15h6.48V6.48H8.15V0Z" transform="translate(1.62 224.11)" fill="#fff"/>
    <path id="Path-60" data-name="Path" d="M8.15,0H6.48V6.48H0V8.15H6.48v6.48H8.15V8.15h6.48V6.48H8.15V0Z" transform="translate(1.62 298.81)" fill="#fff"/>
  </g>
</svg>
